solid Onshape
  facet normal -0.263382 -0.964692 0
    outer loop
      vertex 114.938 8.89 0
      vertex 62.6335 23.1703 0
      vertex 114.938 8.89 -6.35
    endloop
  endfacet
  facet normal -0.263382 -0.964692 0
    outer loop
      vertex 62.6335 23.1703 0
      vertex 62.6335 23.1703 -6.35
      vertex 114.938 8.89 -6.35
    endloop
  endfacet
  facet normal 0 1 0
    outer loop
      vertex 62.6335 8.89 0
      vertex 114.938 8.89 0
      vertex 62.6335 8.89 -6.35
    endloop
  endfacet
  facet normal 0 1 0
    outer loop
      vertex 114.938 8.89 0
      vertex 114.938 8.89 -6.35
      vertex 62.6335 8.89 -6.35
    endloop
  endfacet
  facet normal 0 1 0
    outer loop
      vertex 127 38.1 -6.35
      vertex 0 38.1 -6.35
      vertex 127 38.1 0
    endloop
  endfacet
  facet normal 0 1 0
    outer loop
      vertex 0 38.1 -6.35
      vertex 0 38.1 0
      vertex 127 38.1 0
    endloop
  endfacet
  facet normal 0 -1 0
    outer loop
      vertex 7.62 29.21 0
      vertex 7.62 29.21 -6.35
      vertex 50.8 29.21 0
    endloop
  endfacet
  facet normal 0 -1 0
    outer loop
      vertex 7.62 29.21 -6.35
      vertex 50.8 29.21 -6.35
      vertex 50.8 29.21 0
    endloop
  endfacet
  facet normal 0 -1 0
    outer loop
      vertex 0 0 0
      vertex 0 0 -6.35
      vertex 127 0 0
    endloop
  endfacet
  facet normal 0 -1 0
    outer loop
      vertex 0 0 -6.35
      vertex 127 0 -6.35
      vertex 127 0 0
    endloop
  endfacet
  facet normal 0 0 -1
    outer loop
      vertex 50.8 29.21 -6.35
      vertex 7.62 29.21 -6.35
      vertex 0 38.1 -6.35
    endloop
  endfacet
  facet normal 0 0 -1
    outer loop
      vertex 114.938 8.89 -6.35
      vertex 62.6335 23.1703 -6.35
      vertex 62.6335 29.21 -6.35
    endloop
  endfacet
  facet normal 0 0 -1
    outer loop
      vertex 50.8 8.89 -6.35
      vertex 127 0 -6.35
      vertex 0 0 -6.35
    endloop
  endfacet
  facet normal 0 0 -1
    outer loop
      vertex 0 38.1 -6.35
      vertex 7.62 29.21 -6.35
      vertex 0 0 -6.35
    endloop
  endfacet
  facet normal 0 0 -1
    outer loop
      vertex 7.62 29.21 -6.35
      vertex 7.62 8.89 -6.35
      vertex 0 0 -6.35
    endloop
  endfacet
  facet normal 0 0 -1
    outer loop
      vertex 0 0 -6.35
      vertex 7.62 8.89 -6.35
      vertex 50.8 8.89 -6.35
    endloop
  endfacet
  facet normal 0 0 -1
    outer loop
      vertex 62.6335 29.21 -6.35
      vertex 127 38.1 -6.35
      vertex 139.684 29.21 -6.35
    endloop
  endfacet
  facet normal 0 0 -1
    outer loop
      vertex 127 38.1 -6.35
      vertex 203.2 26.67 -6.35
      vertex 139.684 29.21 -6.35
    endloop
  endfacet
  facet normal 0 0 -1
    outer loop
      vertex 139.684 29.21 -6.35
      vertex 203.2 26.67 -6.35
      vertex 139.684 8.89 -6.35
    endloop
  endfacet
  facet normal 0 0 -1
    outer loop
      vertex 203.2 26.67 -6.35
      vertex 203.2 11.43 -6.35
      vertex 139.684 8.89 -6.35
    endloop
  endfacet
  facet normal 0 0 -1
    outer loop
      vertex 139.684 8.89 -6.35
      vertex 203.2 11.43 -6.35
      vertex 127 0 -6.35
    endloop
  endfacet
  facet normal 0 0 -1
    outer loop
      vertex 62.6335 29.21 -6.35
      vertex 139.684 8.89 -6.35
      vertex 114.938 8.89 -6.35
    endloop
  endfacet
  facet normal 0 0 -1
    outer loop
      vertex 139.684 8.89 -6.35
      vertex 127 0 -6.35
      vertex 114.938 8.89 -6.35
    endloop
  endfacet
  facet normal 0 0 -1
    outer loop
      vertex 114.938 8.89 -6.35
      vertex 127 0 -6.35
      vertex 62.6335 8.89 -6.35
    endloop
  endfacet
  facet normal 0 0 -1
    outer loop
      vertex 127 0 -6.35
      vertex 50.8 8.89 -6.35
      vertex 62.6335 8.89 -6.35
    endloop
  endfacet
  facet normal 0 0 -1
    outer loop
      vertex 62.6335 8.89 -6.35
      vertex 50.8 8.89 -6.35
      vertex 62.6335 23.1703 -6.35
    endloop
  endfacet
  facet normal 0 0 -1
    outer loop
      vertex 50.8 8.89 -6.35
      vertex 50.8 29.21 -6.35
      vertex 62.6335 23.1703 -6.35
    endloop
  endfacet
  facet normal 0 0 -1
    outer loop
      vertex 62.6335 23.1703 -6.35
      vertex 50.8 29.21 -6.35
      vertex 62.6335 29.21 -6.35
    endloop
  endfacet
  facet normal 0 0 -1
    outer loop
      vertex 50.8 29.21 -6.35
      vertex 0 38.1 -6.35
      vertex 62.6335 29.21 -6.35
    endloop
  endfacet
  facet normal 0 0 -1
    outer loop
      vertex 62.6335 29.21 -6.35
      vertex 0 38.1 -6.35
      vertex 127 38.1 -6.35
    endloop
  endfacet
  facet normal 0 0 1
    outer loop
      vertex 0 38.1 0
      vertex 50.8 29.21 0
      vertex 127 38.1 0
    endloop
  endfacet
  facet normal 0 0 1
    outer loop
      vertex 50.8 29.21 0
      vertex 62.6335 29.21 0
      vertex 127 38.1 0
    endloop
  endfacet
  facet normal 0 0 1
    outer loop
      vertex 127 38.1 0
      vertex 62.6335 29.21 0
      vertex 139.684 29.21 0
    endloop
  endfacet
  facet normal 0 0 1
    outer loop
      vertex 139.684 8.89 0
      vertex 203.2 11.43 0
      vertex 139.684 29.21 0
    endloop
  endfacet
  facet normal 0 0 1
    outer loop
      vertex 203.2 11.43 0
      vertex 203.2 26.67 0
      vertex 139.684 29.21 0
    endloop
  endfacet
  facet normal 0 0 1
    outer loop
      vertex 139.684 29.21 0
      vertex 203.2 26.67 0
      vertex 127 38.1 0
    endloop
  endfacet
  facet normal 0 0 1
    outer loop
      vertex 50.8 8.89 0
      vertex 62.6335 8.89 0
      vertex 50.8 29.21 0
    endloop
  endfacet
  facet normal 0 0 1
    outer loop
      vertex 62.6335 8.89 0
      vertex 62.6335 23.1703 0
      vertex 50.8 29.21 0
    endloop
  endfacet
  facet normal 0 0 1
    outer loop
      vertex 50.8 29.21 0
      vertex 62.6335 23.1703 0
      vertex 62.6335 29.21 0
    endloop
  endfacet
  facet normal 0 0 1
    outer loop
      vertex 62.6335 23.1703 0
      vertex 114.938 8.89 0
      vertex 62.6335 29.21 0
    endloop
  endfacet
  facet normal 0 0 1
    outer loop
      vertex 62.6335 29.21 0
      vertex 114.938 8.89 0
      vertex 139.684 8.89 0
    endloop
  endfacet
  facet normal 0 0 1
    outer loop
      vertex 114.938 8.89 0
      vertex 127 0 0
      vertex 139.684 8.89 0
    endloop
  endfacet
  facet normal 0 0 1
    outer loop
      vertex 139.684 8.89 0
      vertex 127 0 0
      vertex 203.2 11.43 0
    endloop
  endfacet
  facet normal 0 0 1
    outer loop
      vertex 114.938 8.89 0
      vertex 62.6335 8.89 0
      vertex 127 0 0
    endloop
  endfacet
  facet normal 0 0 1
    outer loop
      vertex 62.6335 8.89 0
      vertex 50.8 8.89 0
      vertex 127 0 0
    endloop
  endfacet
  facet normal 0 0 1
    outer loop
      vertex 127 0 0
      vertex 50.8 8.89 0
      vertex 0 0 0
    endloop
  endfacet
  facet normal 0 0 1
    outer loop
      vertex 50.8 8.89 0
      vertex 7.62 8.89 0
      vertex 0 0 0
    endloop
  endfacet
  facet normal 0 0 1
    outer loop
      vertex 0 0 0
      vertex 7.62 8.89 0
      vertex 0 38.1 0
    endloop
  endfacet
  facet normal 0 0 1
    outer loop
      vertex 7.62 8.89 0
      vertex 7.62 29.21 0
      vertex 0 38.1 0
    endloop
  endfacet
  facet normal 0 0 1
    outer loop
      vertex 0 38.1 0
      vertex 7.62 29.21 0
      vertex 50.8 29.21 0
    endloop
  endfacet
  facet normal 1 0 0
    outer loop
      vertex 203.2 11.43 0
      vertex 203.2 11.43 -6.35
      vertex 203.2 26.67 0
    endloop
  endfacet
  facet normal 1 0 0
    outer loop
      vertex 203.2 11.43 -6.35
      vertex 203.2 26.67 -6.35
      vertex 203.2 26.67 0
    endloop
  endfacet
  facet normal 1 0 0
    outer loop
      vertex 7.62 29.21 0
      vertex 7.62 8.89 0
      vertex 7.62 29.21 -6.35
    endloop
  endfacet
  facet normal 1 0 0
    outer loop
      vertex 7.62 8.89 0
      vertex 7.62 8.89 -6.35
      vertex 7.62 29.21 -6.35
    endloop
  endfacet
  facet normal 0 1 0
    outer loop
      vertex 7.62 8.89 0
      vertex 50.8 8.89 0
      vertex 7.62 8.89 -6.35
    endloop
  endfacet
  facet normal 0 1 0
    outer loop
      vertex 50.8 8.89 0
      vertex 50.8 8.89 -6.35
      vertex 7.62 8.89 -6.35
    endloop
  endfacet
  facet normal -1 0 0
    outer loop
      vertex 50.8 29.21 0
      vertex 50.8 29.21 -6.35
      vertex 50.8 8.89 0
    endloop
  endfacet
  facet normal -1 0 0
    outer loop
      vertex 50.8 29.21 -6.35
      vertex 50.8 8.89 -6.35
      vertex 50.8 8.89 0
    endloop
  endfacet
  facet normal 0.14834 -0.988936 0
    outer loop
      vertex 203.2 11.43 -6.35
      vertex 203.2 11.43 0
      vertex 127 0 -6.35
    endloop
  endfacet
  facet normal 0.14834 -0.988936 0
    outer loop
      vertex 203.2 11.43 0
      vertex 127 0 0
      vertex 127 0 -6.35
    endloop
  endfacet
  facet normal 1 0 0
    outer loop
      vertex 62.6335 23.1703 0
      vertex 62.6335 8.89 0
      vertex 62.6335 23.1703 -6.35
    endloop
  endfacet
  facet normal 1 0 0
    outer loop
      vertex 62.6335 8.89 0
      vertex 62.6335 8.89 -6.35
      vertex 62.6335 23.1703 -6.35
    endloop
  endfacet
  facet normal 0.14834 0.988936 0
    outer loop
      vertex 203.2 26.67 -6.35
      vertex 127 38.1 -6.35
      vertex 203.2 26.67 0
    endloop
  endfacet
  facet normal 0.14834 0.988936 0
    outer loop
      vertex 127 38.1 -6.35
      vertex 127 38.1 0
      vertex 203.2 26.67 0
    endloop
  endfacet
  facet normal -1 0 0
    outer loop
      vertex 0 38.1 -6.35
      vertex 0 0 -6.35
      vertex 0 38.1 0
    endloop
  endfacet
  facet normal -1 0 0
    outer loop
      vertex 0 0 -6.35
      vertex 0 0 0
      vertex 0 38.1 0
    endloop
  endfacet
  facet normal 0 -1 0
    outer loop
      vertex 62.6335 29.21 0
      vertex 62.6335 29.21 -6.35
      vertex 139.684 29.21 0
    endloop
  endfacet
  facet normal 0 -1 0
    outer loop
      vertex 62.6335 29.21 -6.35
      vertex 139.684 29.21 -6.35
      vertex 139.684 29.21 0
    endloop
  endfacet
  facet normal 0.255003 0.96694 0
    outer loop
      vertex 139.684 8.89 0
      vertex 139.684 8.89 -6.35
      vertex 62.6335 29.21 0
    endloop
  endfacet
  facet normal 0.255003 0.96694 0
    outer loop
      vertex 139.684 8.89 -6.35
      vertex 62.6335 29.21 -6.35
      vertex 62.6335 29.21 0
    endloop
  endfacet
  facet normal -1 0 0
    outer loop
      vertex 139.684 29.21 0
      vertex 139.684 29.21 -6.35
      vertex 139.684 8.89 0
    endloop
  endfacet
  facet normal -1 0 0
    outer loop
      vertex 139.684 29.21 -6.35
      vertex 139.684 8.89 -6.35
      vertex 139.684 8.89 0
    endloop
  endfacet
endsolid Onshape
