solid Onshape
  facet normal 0 0.707107 0.707107
    outer loop
      vertex 44.45 -57.15 114.3
      vertex 50.8 -57.15 114.3
      vertex 44.45 -19.05 76.2
    endloop
  endfacet
  facet normal 0 0.707107 0.707107
    outer loop
      vertex 50.8 -57.15 114.3
      vertex 50.8 -19.05 76.2
      vertex 44.45 -19.05 76.2
    endloop
  endfacet
  facet normal 0 1 0
    outer loop
      vertex 44.45 -57.15 114.3
      vertex 19.05 -57.15 82.55
      vertex 19.05 -57.15 133.35
    endloop
  endfacet
  facet normal 0 1 0
    outer loop
      vertex 44.45 -57.15 114.3
      vertex 19.05 -57.15 133.35
      vertex 50.8 -57.15 114.3
    endloop
  endfacet
  facet normal 0 1 0
    outer loop
      vertex -19.05 -57.15 76.2
      vertex -19.05 -57.15 114.3
      vertex 6.35 -57.15 133.35
    endloop
  endfacet
  facet normal 0 1 0
    outer loop
      vertex -19.05 -57.15 114.3
      vertex -25.4 -57.15 114.3
      vertex 6.35 -57.15 133.35
    endloop
  endfacet
  facet normal 0 1 0
    outer loop
      vertex -25.4 -57.15 114.3
      vertex -25.4 -57.15 139.7
      vertex 6.35 -57.15 133.35
    endloop
  endfacet
  facet normal 0 1 0
    outer loop
      vertex 6.35 -57.15 133.35
      vertex -25.4 -57.15 139.7
      vertex 19.05 -57.15 133.35
    endloop
  endfacet
  facet normal 0 1 0
    outer loop
      vertex -25.4 -57.15 139.7
      vertex 50.8 -57.15 139.7
      vertex 19.05 -57.15 133.35
    endloop
  endfacet
  facet normal 0 1 0
    outer loop
      vertex 19.05 -57.15 133.35
      vertex 50.8 -57.15 139.7
      vertex 50.8 -57.15 114.3
    endloop
  endfacet
  facet normal 0 1 0
    outer loop
      vertex 6.35 -57.15 133.35
      vertex 6.35 -57.15 82.55
      vertex -19.05 -57.15 76.2
    endloop
  endfacet
  facet normal 0 1 0
    outer loop
      vertex 6.35 -57.15 82.55
      vertex 19.05 -57.15 82.55
      vertex -19.05 -57.15 76.2
    endloop
  endfacet
  facet normal 0 1 0
    outer loop
      vertex -19.05 -57.15 76.2
      vertex 19.05 -57.15 82.55
      vertex 44.45 -57.15 76.2
    endloop
  endfacet
  facet normal 0 1 0
    outer loop
      vertex 19.05 -57.15 82.55
      vertex 44.45 -57.15 114.3
      vertex 44.45 -57.15 76.2
    endloop
  endfacet
  facet normal 0 0 1
    outer loop
      vertex 50.8 -57.15 139.7
      vertex -25.4 -57.15 139.7
      vertex 50.8 -63.5 139.7
    endloop
  endfacet
  facet normal 0 0 1
    outer loop
      vertex -25.4 -57.15 139.7
      vertex -25.4 -63.5 139.7
      vertex 50.8 -63.5 139.7
    endloop
  endfacet
  facet normal -1 0 0
    outer loop
      vertex 19.05 -57.15 133.35
      vertex 19.05 -57.15 82.55
      vertex 19.05 -63.5 133.35
    endloop
  endfacet
  facet normal -1 0 0
    outer loop
      vertex 19.05 -57.15 82.55
      vertex 19.05 -63.5 82.55
      vertex 19.05 -63.5 133.35
    endloop
  endfacet
  facet normal 0 0 -1
    outer loop
      vertex 6.35 -57.15 133.35
      vertex 19.05 -57.15 133.35
      vertex 6.35 -63.5 133.35
    endloop
  endfacet
  facet normal 0 0 -1
    outer loop
      vertex 19.05 -57.15 133.35
      vertex 19.05 -63.5 133.35
      vertex 6.35 -63.5 133.35
    endloop
  endfacet
  facet normal 1 0 0
    outer loop
      vertex 6.35 -57.15 82.55
      vertex 6.35 -57.15 133.35
      vertex 6.35 -63.5 82.55
    endloop
  endfacet
  facet normal 1 0 0
    outer loop
      vertex 6.35 -57.15 133.35
      vertex 6.35 -63.5 133.35
      vertex 6.35 -63.5 82.55
    endloop
  endfacet
  facet normal 0 1 0
    outer loop
      vertex 50.8 0 69.85
      vertex -25.4 0 69.85
      vertex 50.8 0 76.2
    endloop
  endfacet
  facet normal 0 1 0
    outer loop
      vertex -25.4 0 69.85
      vertex -25.4 0 76.2
      vertex 50.8 0 76.2
    endloop
  endfacet
  facet normal 0 0 1
    outer loop
      vertex 50.8 0 76.2
      vertex -25.4 0 76.2
      vertex -19.05 -19.05 76.2
    endloop
  endfacet
  facet normal 0 0 1
    outer loop
      vertex -25.4 0 76.2
      vertex -25.4 -19.05 76.2
      vertex -19.05 -19.05 76.2
    endloop
  endfacet
  facet normal 0 0 1
    outer loop
      vertex 50.8 -19.05 76.2
      vertex 50.8 0 76.2
      vertex 44.45 -19.05 76.2
    endloop
  endfacet
  facet normal 0 0 1
    outer loop
      vertex 50.8 0 76.2
      vertex -19.05 -19.05 76.2
      vertex 44.45 -19.05 76.2
    endloop
  endfacet
  facet normal 0 0 1
    outer loop
      vertex 44.45 -19.05 76.2
      vertex -19.05 -19.05 76.2
      vertex 44.45 -57.15 76.2
    endloop
  endfacet
  facet normal 0 0 1
    outer loop
      vertex -19.05 -19.05 76.2
      vertex -19.05 -57.15 76.2
      vertex 44.45 -57.15 76.2
    endloop
  endfacet
  facet normal 0 0.707107 0.707107
    outer loop
      vertex -25.4 -19.05 76.2
      vertex -25.4 -57.15 114.3
      vertex -19.05 -19.05 76.2
    endloop
  endfacet
  facet normal 0 0.707107 0.707107
    outer loop
      vertex -25.4 -57.15 114.3
      vertex -19.05 -57.15 114.3
      vertex -19.05 -19.05 76.2
    endloop
  endfacet
  facet normal 0 -1 0
    outer loop
      vertex 19.05 -63.5 133.35
      vertex 50.8 -63.5 139.7
      vertex 6.35 -63.5 133.35
    endloop
  endfacet
  facet normal 0 -1 0
    outer loop
      vertex 50.8 -63.5 139.7
      vertex -25.4 -63.5 139.7
      vertex 6.35 -63.5 133.35
    endloop
  endfacet
  facet normal 0 -1 0
    outer loop
      vertex 6.35 -63.5 133.35
      vertex -25.4 -63.5 139.7
      vertex 6.35 -63.5 82.55
    endloop
  endfacet
  facet normal 0 -1 0
    outer loop
      vertex -25.4 -63.5 139.7
      vertex -25.4 -63.5 69.85
      vertex 6.35 -63.5 82.55
    endloop
  endfacet
  facet normal 0 -1 0
    outer loop
      vertex 6.35 -63.5 82.55
      vertex -25.4 -63.5 69.85
      vertex 19.05 -63.5 82.55
    endloop
  endfacet
  facet normal 0 -1 0
    outer loop
      vertex -25.4 -63.5 69.85
      vertex 50.8 -63.5 69.85
      vertex 19.05 -63.5 82.55
    endloop
  endfacet
  facet normal 0 -1 0
    outer loop
      vertex 19.05 -63.5 82.55
      vertex 50.8 -63.5 69.85
      vertex 19.05 -63.5 133.35
    endloop
  endfacet
  facet normal 0 -1 0
    outer loop
      vertex 50.8 -63.5 69.85
      vertex 50.8 -63.5 139.7
      vertex 19.05 -63.5 133.35
    endloop
  endfacet
  facet normal -1 0 0
    outer loop
      vertex 44.45 -19.05 76.2
      vertex 44.45 -57.15 76.2
      vertex 44.45 -57.15 114.3
    endloop
  endfacet
  facet normal -1 0 0
    outer loop
      vertex -25.4 0 76.2
      vertex -25.4 0 69.85
      vertex -25.4 -19.05 76.2
    endloop
  endfacet
  facet normal -1 0 0
    outer loop
      vertex -25.4 0 69.85
      vertex -25.4 -63.5 69.85
      vertex -25.4 -19.05 76.2
    endloop
  endfacet
  facet normal -1 0 0
    outer loop
      vertex -25.4 -19.05 76.2
      vertex -25.4 -63.5 69.85
      vertex -25.4 -57.15 114.3
    endloop
  endfacet
  facet normal -1 0 0
    outer loop
      vertex -25.4 -63.5 69.85
      vertex -25.4 -63.5 139.7
      vertex -25.4 -57.15 114.3
    endloop
  endfacet
  facet normal -1 0 0
    outer loop
      vertex -25.4 -57.15 114.3
      vertex -25.4 -63.5 139.7
      vertex -25.4 -57.15 139.7
    endloop
  endfacet
  facet normal 0 0 1
    outer loop
      vertex 19.05 -57.15 82.55
      vertex 6.35 -57.15 82.55
      vertex 19.05 -63.5 82.55
    endloop
  endfacet
  facet normal 0 0 1
    outer loop
      vertex 6.35 -57.15 82.55
      vertex 6.35 -63.5 82.55
      vertex 19.05 -63.5 82.55
    endloop
  endfacet
  facet normal 0 0 -1
    outer loop
      vertex 50.8 -63.5 69.85
      vertex -25.4 -63.5 69.85
      vertex 50.8 0 69.85
    endloop
  endfacet
  facet normal 0 0 -1
    outer loop
      vertex -25.4 -63.5 69.85
      vertex -25.4 0 69.85
      vertex 50.8 0 69.85
    endloop
  endfacet
  facet normal 1 0 0
    outer loop
      vertex -19.05 -57.15 114.3
      vertex -19.05 -57.15 76.2
      vertex -19.05 -19.05 76.2
    endloop
  endfacet
  facet normal 1 0 0
    outer loop
      vertex 50.8 -57.15 139.7
      vertex 50.8 -63.5 139.7
      vertex 50.8 -57.15 114.3
    endloop
  endfacet
  facet normal 1 0 0
    outer loop
      vertex 50.8 -63.5 139.7
      vertex 50.8 -63.5 69.85
      vertex 50.8 -57.15 114.3
    endloop
  endfacet
  facet normal 1 0 0
    outer loop
      vertex 50.8 -57.15 114.3
      vertex 50.8 -63.5 69.85
      vertex 50.8 -19.05 76.2
    endloop
  endfacet
  facet normal 1 0 0
    outer loop
      vertex 50.8 -63.5 69.85
      vertex 50.8 0 69.85
      vertex 50.8 -19.05 76.2
    endloop
  endfacet
  facet normal 1 0 0
    outer loop
      vertex 50.8 -19.05 76.2
      vertex 50.8 0 69.85
      vertex 50.8 0 76.2
    endloop
  endfacet
endsolid Onshape
