solid Onshape
  facet normal 0 0.707107 0.707107
    outer loop
      vertex 20.32 -58.42 113.03
      vertex 25.4 -58.42 113.03
      vertex 20.32 -20.32 74.93
    endloop
  endfacet
  facet normal 0 0.707107 0.707107
    outer loop
      vertex 25.4 -58.42 113.03
      vertex 25.4 -20.32 74.93
      vertex 20.32 -20.32 74.93
    endloop
  endfacet
  facet normal 0 1 0
    outer loop
      vertex 25.4 -58.42 138.43
      vertex 6.35 -58.42 132.08
      vertex -25.4 -58.42 138.43
    endloop
  endfacet
  facet normal 0 1 0
    outer loop
      vertex 6.35 -58.42 132.08
      vertex -6.35 -58.42 132.08
      vertex -25.4 -58.42 138.43
    endloop
  endfacet
  facet normal 0 1 0
    outer loop
      vertex -25.4 -58.42 113.03
      vertex -25.4 -58.42 138.43
      vertex -20.32 -58.42 113.03
    endloop
  endfacet
  facet normal 0 1 0
    outer loop
      vertex -25.4 -58.42 138.43
      vertex -6.35 -58.42 132.08
      vertex -20.32 -58.42 113.03
    endloop
  endfacet
  facet normal 0 1 0
    outer loop
      vertex -20.32 -58.42 113.03
      vertex -6.35 -58.42 132.08
      vertex -20.32 -58.42 74.93
    endloop
  endfacet
  facet normal 0 1 0
    outer loop
      vertex -6.35 -58.42 132.08
      vertex -6.35 -58.42 81.28
      vertex -20.32 -58.42 74.93
    endloop
  endfacet
  facet normal 0 1 0
    outer loop
      vertex -20.32 -58.42 74.93
      vertex -6.35 -58.42 81.28
      vertex 20.32 -58.42 74.93
    endloop
  endfacet
  facet normal 0 1 0
    outer loop
      vertex -6.35 -58.42 81.28
      vertex 6.35 -58.42 81.28
      vertex 20.32 -58.42 74.93
    endloop
  endfacet
  facet normal 0 1 0
    outer loop
      vertex 20.32 -58.42 74.93
      vertex 6.35 -58.42 81.28
      vertex 20.32 -58.42 113.03
    endloop
  endfacet
  facet normal 0 1 0
    outer loop
      vertex 6.35 -58.42 81.28
      vertex 6.35 -58.42 132.08
      vertex 20.32 -58.42 113.03
    endloop
  endfacet
  facet normal 0 1 0
    outer loop
      vertex 20.32 -58.42 113.03
      vertex 6.35 -58.42 132.08
      vertex 25.4 -58.42 113.03
    endloop
  endfacet
  facet normal 0 1 0
    outer loop
      vertex 6.35 -58.42 132.08
      vertex 25.4 -58.42 138.43
      vertex 25.4 -58.42 113.03
    endloop
  endfacet
  facet normal 0 0 1
    outer loop
      vertex 25.4 -58.42 138.43
      vertex -25.4 -58.42 138.43
      vertex 25.4 -63.5 138.43
    endloop
  endfacet
  facet normal 0 0 1
    outer loop
      vertex -25.4 -58.42 138.43
      vertex -25.4 -63.5 138.43
      vertex 25.4 -63.5 138.43
    endloop
  endfacet
  facet normal -1 0 0
    outer loop
      vertex 6.35 -58.42 132.08
      vertex 6.35 -58.42 81.28
      vertex 6.35 -63.5 132.08
    endloop
  endfacet
  facet normal -1 0 0
    outer loop
      vertex 6.35 -58.42 81.28
      vertex 6.35 -63.5 81.28
      vertex 6.35 -63.5 132.08
    endloop
  endfacet
  facet normal 0 0 -1
    outer loop
      vertex -6.35 -58.42 132.08
      vertex 6.35 -58.42 132.08
      vertex -6.35 -63.5 132.08
    endloop
  endfacet
  facet normal 0 0 -1
    outer loop
      vertex 6.35 -58.42 132.08
      vertex 6.35 -63.5 132.08
      vertex -6.35 -63.5 132.08
    endloop
  endfacet
  facet normal 1 0 0
    outer loop
      vertex -6.35 -58.42 81.28
      vertex -6.35 -58.42 132.08
      vertex -6.35 -63.5 81.28
    endloop
  endfacet
  facet normal 1 0 0
    outer loop
      vertex -6.35 -58.42 132.08
      vertex -6.35 -63.5 132.08
      vertex -6.35 -63.5 81.28
    endloop
  endfacet
  facet normal 0 1 0
    outer loop
      vertex 25.4 0 69.85
      vertex -25.4 0 69.85
      vertex 25.4 0 74.93
    endloop
  endfacet
  facet normal 0 1 0
    outer loop
      vertex -25.4 0 69.85
      vertex -25.4 0 74.93
      vertex 25.4 0 74.93
    endloop
  endfacet
  facet normal 0 0 1
    outer loop
      vertex -25.4 0 74.93
      vertex -25.4 -20.32 74.93
      vertex 25.4 0 74.93
    endloop
  endfacet
  facet normal 0 0 1
    outer loop
      vertex -25.4 -20.32 74.93
      vertex -20.32 -20.32 74.93
      vertex 25.4 0 74.93
    endloop
  endfacet
  facet normal 0 0 1
    outer loop
      vertex 25.4 -20.32 74.93
      vertex 25.4 0 74.93
      vertex 20.32 -20.32 74.93
    endloop
  endfacet
  facet normal 0 0 1
    outer loop
      vertex 25.4 0 74.93
      vertex -20.32 -20.32 74.93
      vertex 20.32 -20.32 74.93
    endloop
  endfacet
  facet normal 0 0 1
    outer loop
      vertex 20.32 -20.32 74.93
      vertex -20.32 -20.32 74.93
      vertex 20.32 -58.42 74.93
    endloop
  endfacet
  facet normal 0 0 1
    outer loop
      vertex -20.32 -20.32 74.93
      vertex -20.32 -58.42 74.93
      vertex 20.32 -58.42 74.93
    endloop
  endfacet
  facet normal 0 0.707107 0.707107
    outer loop
      vertex -25.4 -20.32 74.93
      vertex -25.4 -58.42 113.03
      vertex -20.32 -20.32 74.93
    endloop
  endfacet
  facet normal 0 0.707107 0.707107
    outer loop
      vertex -25.4 -58.42 113.03
      vertex -20.32 -58.42 113.03
      vertex -20.32 -20.32 74.93
    endloop
  endfacet
  facet normal 0 -1 0
    outer loop
      vertex 6.35 -63.5 132.08
      vertex 25.4 -63.5 138.43
      vertex -6.35 -63.5 132.08
    endloop
  endfacet
  facet normal 0 -1 0
    outer loop
      vertex 25.4 -63.5 138.43
      vertex -25.4 -63.5 138.43
      vertex -6.35 -63.5 132.08
    endloop
  endfacet
  facet normal 0 -1 0
    outer loop
      vertex -6.35 -63.5 132.08
      vertex -25.4 -63.5 138.43
      vertex -6.35 -63.5 81.28
    endloop
  endfacet
  facet normal 0 -1 0
    outer loop
      vertex -25.4 -63.5 138.43
      vertex -25.4 -63.5 69.85
      vertex -6.35 -63.5 81.28
    endloop
  endfacet
  facet normal 0 -1 0
    outer loop
      vertex -6.35 -63.5 81.28
      vertex -25.4 -63.5 69.85
      vertex 6.35 -63.5 81.28
    endloop
  endfacet
  facet normal 0 -1 0
    outer loop
      vertex -25.4 -63.5 69.85
      vertex 25.4 -63.5 69.85
      vertex 6.35 -63.5 81.28
    endloop
  endfacet
  facet normal 0 -1 0
    outer loop
      vertex 6.35 -63.5 81.28
      vertex 25.4 -63.5 69.85
      vertex 6.35 -63.5 132.08
    endloop
  endfacet
  facet normal 0 -1 0
    outer loop
      vertex 25.4 -63.5 69.85
      vertex 25.4 -63.5 138.43
      vertex 6.35 -63.5 132.08
    endloop
  endfacet
  facet normal -1 0 0
    outer loop
      vertex 20.32 -20.32 74.93
      vertex 20.32 -58.42 74.93
      vertex 20.32 -58.42 113.03
    endloop
  endfacet
  facet normal -1 0 0
    outer loop
      vertex -25.4 0 74.93
      vertex -25.4 0 69.85
      vertex -25.4 -20.32 74.93
    endloop
  endfacet
  facet normal -1 0 0
    outer loop
      vertex -25.4 0 69.85
      vertex -25.4 -63.5 69.85
      vertex -25.4 -20.32 74.93
    endloop
  endfacet
  facet normal -1 0 0
    outer loop
      vertex -25.4 -20.32 74.93
      vertex -25.4 -63.5 69.85
      vertex -25.4 -58.42 113.03
    endloop
  endfacet
  facet normal -1 0 0
    outer loop
      vertex -25.4 -63.5 69.85
      vertex -25.4 -63.5 138.43
      vertex -25.4 -58.42 113.03
    endloop
  endfacet
  facet normal -1 0 0
    outer loop
      vertex -25.4 -58.42 113.03
      vertex -25.4 -63.5 138.43
      vertex -25.4 -58.42 138.43
    endloop
  endfacet
  facet normal 0 0 1
    outer loop
      vertex 6.35 -58.42 81.28
      vertex -6.35 -58.42 81.28
      vertex 6.35 -63.5 81.28
    endloop
  endfacet
  facet normal 0 0 1
    outer loop
      vertex -6.35 -58.42 81.28
      vertex -6.35 -63.5 81.28
      vertex 6.35 -63.5 81.28
    endloop
  endfacet
  facet normal 0 0 -1
    outer loop
      vertex 25.4 -63.5 69.85
      vertex -25.4 -63.5 69.85
      vertex 25.4 0 69.85
    endloop
  endfacet
  facet normal 0 0 -1
    outer loop
      vertex -25.4 -63.5 69.85
      vertex -25.4 0 69.85
      vertex 25.4 0 69.85
    endloop
  endfacet
  facet normal 1 0 0
    outer loop
      vertex -20.32 -58.42 113.03
      vertex -20.32 -58.42 74.93
      vertex -20.32 -20.32 74.93
    endloop
  endfacet
  facet normal 1 0 0
    outer loop
      vertex 25.4 -58.42 138.43
      vertex 25.4 -63.5 138.43
      vertex 25.4 -58.42 113.03
    endloop
  endfacet
  facet normal 1 0 0
    outer loop
      vertex 25.4 -63.5 138.43
      vertex 25.4 -63.5 69.85
      vertex 25.4 -58.42 113.03
    endloop
  endfacet
  facet normal 1 0 0
    outer loop
      vertex 25.4 -58.42 113.03
      vertex 25.4 -63.5 69.85
      vertex 25.4 -20.32 74.93
    endloop
  endfacet
  facet normal 1 0 0
    outer loop
      vertex 25.4 -63.5 69.85
      vertex 25.4 0 69.85
      vertex 25.4 -20.32 74.93
    endloop
  endfacet
  facet normal 1 0 0
    outer loop
      vertex 25.4 -20.32 74.93
      vertex 25.4 0 69.85
      vertex 25.4 0 74.93
    endloop
  endfacet
endsolid Onshape
